<svg width="24" height="24" viewBox="0 0 24 24" fill="none" xmlns="http://www.w3.org/2000/svg">
<path d="M19.4667 2.3999C20.6449 2.3999 21.6 3.34194 21.6 4.50401L21.6 8.09583C21.6 9.2579 20.6449 10.1999 19.4667 10.1999H16.2667C15.0885 10.1999 14.1334 9.2579 14.1334 8.09583L14.1334 4.50401C14.1334 3.34194 15.0885 2.3999 16.2667 2.3999L19.4667 2.3999Z" stroke="black" stroke-width="2" stroke-linecap="round" stroke-linejoin="round"/>
<path d="M4.53336 2.3999C3.35515 2.3999 2.40002 3.34194 2.40002 4.50401L2.40003 8.09583C2.40003 9.2579 3.35516 10.1999 4.53337 10.1999H7.73337C8.91157 10.1999 9.8667 9.2579 9.8667 8.09583L9.86669 4.50401C9.86669 3.34194 8.91156 2.3999 7.73336 2.3999L4.53336 2.3999Z" stroke="black" stroke-width="2" stroke-linecap="round" stroke-linejoin="round"/>
<path d="M19.4667 13.7999C20.6449 13.7999 21.6 14.742 21.6 15.9041V19.4958C21.6 20.6579 20.6449 21.5999 19.4667 21.5999H16.2667C15.0885 21.5999 14.1334 20.6579 14.1334 19.4958L14.1334 15.9041C14.1334 14.742 15.0885 13.7999 16.2667 13.7999H19.4667Z" stroke="black" stroke-width="2" stroke-linecap="round" stroke-linejoin="round"/>
<path d="M4.53337 13.7999C3.35516 13.7999 2.40003 14.742 2.40003 15.9041L2.40004 19.4958C2.40004 20.6579 3.35516 21.5999 4.53337 21.5999H7.73337C8.91157 21.5999 9.8667 20.6579 9.8667 19.4958L9.8667 15.9041C9.8667 14.742 8.91157 13.7999 7.73336 13.7999H4.53337Z" stroke="black" stroke-width="2" stroke-linecap="round" stroke-linejoin="round"/>
</svg>
