<svg width="460" height="749" viewBox="0 0 460 749" fill="none" xmlns="http://www.w3.org/2000/svg">
<path d="M-259.567 228.97C-229.441 157.538 -177.889 97.2161 -112.025 56.3268C-46.1603 15.4375 30.7705 -4.00364 108.153 0.685764C185.536 5.37516 259.556 33.964 320.001 82.5076C380.446 131.051 424.336 197.157 445.616 271.704C466.895 346.251 464.515 425.565 438.805 498.702C413.094 571.839 365.319 635.194 302.073 680.026C238.826 724.859 163.225 748.958 85.7007 749C8.17603 749.042 -67.4509 725.023 -130.745 680.258L-37.3484 548.201C-1.39099 573.631 41.5724 587.276 85.614 587.252C129.656 587.229 172.604 573.538 208.535 548.069C244.465 522.6 271.605 486.608 286.212 445.059C300.818 403.51 302.17 358.452 290.081 316.102C277.992 273.752 253.058 236.197 218.719 208.62C184.381 181.042 142.33 164.801 98.3692 162.137C54.4083 159.473 10.7041 170.518 -26.7133 193.747C-64.1308 216.976 -93.4172 251.244 -110.532 291.825L-259.567 228.97Z" fill="#03254E" fill-opacity="0.2"/>
</svg>
