<svg width="225" height="640" viewBox="0 0 225 640" fill="none" xmlns="http://www.w3.org/2000/svg">
<path d="M719.567 119.97C689.441 48.5381 637.889 -11.7839 572.025 -52.6732C506.16 -93.5625 429.229 -113.004 351.847 -108.314C274.464 -103.625 200.444 -75.036 139.999 -26.4924C79.5542 22.0513 35.6641 88.1571 14.3844 162.704C-6.89521 237.251 -4.51547 316.565 21.1953 389.702C46.9061 462.839 94.6806 526.194 157.927 571.026C221.174 615.859 296.775 639.958 374.299 640C451.824 640.041 527.451 616.023 590.745 571.258L497.348 439.201C461.391 464.631 418.428 478.276 374.386 478.252C330.344 478.229 287.396 464.538 251.465 439.069C215.535 413.6 188.395 377.608 173.789 336.059C159.182 294.51 157.83 249.452 169.919 207.102C182.008 164.752 206.942 127.197 241.281 99.6199C275.619 72.0424 317.67 55.8011 361.631 53.1371C405.592 50.4731 449.296 61.5175 486.713 84.7466C524.131 107.976 553.417 142.244 570.532 182.825L719.567 119.97Z" fill="#03254E" fill-opacity="0.2"/>
</svg>
