<svg width="224" height="752" viewBox="0 0 224 752" fill="none" xmlns="http://www.w3.org/2000/svg">
<circle cx="2.33007" cy="11.9175" r="8.42697" transform="rotate(-45 2.33007 11.9175)" fill="#03254E" fill-opacity="0.2"/>
<circle cx="4.11773" cy="48.266" r="8.42697" transform="rotate(-45 4.11773 48.266)" fill="#03254E" fill-opacity="0.2"/>
<circle cx="21.3981" cy="30.9856" r="8.42697" transform="rotate(-45 21.3981 30.9856)" fill="#03254E" fill-opacity="0.2"/>
<circle cx="-11.3751" cy="101.895" r="8.42697" transform="rotate(-45 -11.3751 101.895)" fill="#03254E" fill-opacity="0.2"/>
<circle cx="5.90532" cy="84.6144" r="8.42697" transform="rotate(-45 5.90532 84.6144)" fill="#03254E" fill-opacity="0.2"/>
<circle cx="23.1858" cy="67.334" r="8.42697" transform="rotate(-45 23.1858 67.334)" fill="#03254E" fill-opacity="0.2"/>
<circle cx="40.4661" cy="50.0536" r="8.42697" transform="rotate(-45 40.4661 50.0536)" fill="#03254E" fill-opacity="0.2"/>
<circle cx="-9.58747" cy="138.243" r="8.42697" transform="rotate(-45 -9.58747 138.243)" fill="#03254E" fill-opacity="0.2"/>
<circle cx="7.69298" cy="120.963" r="8.42697" transform="rotate(-45 7.69298 120.963)" fill="#03254E" fill-opacity="0.2"/>
<circle cx="24.9734" cy="103.682" r="8.42697" transform="rotate(-45 24.9734 103.682)" fill="#03254E" fill-opacity="0.2"/>
<circle cx="42.2538" cy="86.402" r="8.42697" transform="rotate(-45 42.2538 86.402)" fill="#03254E" fill-opacity="0.2"/>
<circle cx="59.5342" cy="69.1216" r="8.42697" transform="rotate(-45 59.5342 69.1216)" fill="#03254E" fill-opacity="0.2"/>
<circle cx="-7.79982" cy="174.592" r="8.42697" transform="rotate(-45 -7.79982 174.592)" fill="#03254E" fill-opacity="0.2"/>
<circle cx="9.48058" cy="157.311" r="8.42697" transform="rotate(-45 9.48058 157.311)" fill="#03254E" fill-opacity="0.2"/>
<circle cx="26.761" cy="140.031" r="8.42697" transform="rotate(-45 26.761 140.031)" fill="#03254E" fill-opacity="0.2"/>
<circle cx="44.0414" cy="122.751" r="8.42697" transform="rotate(-45 44.0414 122.751)" fill="#03254E" fill-opacity="0.2"/>
<circle cx="61.3218" cy="105.47" r="8.42697" transform="rotate(-45 61.3218 105.47)" fill="#03254E" fill-opacity="0.2"/>
<circle cx="78.6022" cy="88.1897" r="8.42697" transform="rotate(-45 78.6022 88.1897)" fill="#03254E" fill-opacity="0.2"/>
<circle cx="-6.01222" cy="210.94" r="8.42697" transform="rotate(-45 -6.01222 210.94)" fill="#03254E" fill-opacity="0.2"/>
<circle cx="11.2682" cy="193.66" r="8.42697" transform="rotate(-45 11.2682 193.66)" fill="#03254E" fill-opacity="0.2"/>
<circle cx="28.5486" cy="176.379" r="8.42697" transform="rotate(-45 28.5486 176.379)" fill="#03254E" fill-opacity="0.2"/>
<circle cx="45.829" cy="159.099" r="8.42697" transform="rotate(-45 45.829 159.099)" fill="#03254E" fill-opacity="0.2"/>
<circle cx="63.1094" cy="141.819" r="8.42697" transform="rotate(-45 63.1094 141.819)" fill="#03254E" fill-opacity="0.2"/>
<circle cx="80.3899" cy="124.538" r="8.42697" transform="rotate(-45 80.3899 124.538)" fill="#03254E" fill-opacity="0.2"/>
<circle cx="97.6703" cy="107.258" r="8.42697" transform="rotate(-45 97.6703 107.258)" fill="#03254E" fill-opacity="0.2"/>
<circle cx="-4.22462" cy="247.289" r="8.42697" transform="rotate(-45 -4.22462 247.289)" fill="#03254E" fill-opacity="0.2"/>
<circle cx="13.0558" cy="230.008" r="8.42697" transform="rotate(-45 13.0558 230.008)" fill="#03254E" fill-opacity="0.2"/>
<circle cx="30.3362" cy="212.728" r="8.42697" transform="rotate(-45 30.3362 212.728)" fill="#03254E" fill-opacity="0.2"/>
<circle cx="47.6166" cy="195.447" r="8.42697" transform="rotate(-45 47.6166 195.447)" fill="#03254E" fill-opacity="0.2"/>
<circle cx="64.897" cy="178.167" r="8.42697" transform="rotate(-45 64.897 178.167)" fill="#03254E" fill-opacity="0.2"/>
<circle cx="82.1774" cy="160.887" r="8.42697" transform="rotate(-45 82.1774 160.887)" fill="#03254E" fill-opacity="0.2"/>
<circle cx="99.4578" cy="143.606" r="8.42697" transform="rotate(-45 99.4578 143.606)" fill="#03254E" fill-opacity="0.2"/>
<circle cx="116.738" cy="126.326" r="8.42697" transform="rotate(-45 116.738 126.326)" fill="#03254E" fill-opacity="0.2"/>
<circle cx="-2.43702" cy="283.637" r="8.42697" transform="rotate(-45 -2.43702 283.637)" fill="#03254E" fill-opacity="0.2"/>
<circle cx="14.8434" cy="266.357" r="8.42697" transform="rotate(-45 14.8434 266.357)" fill="#03254E" fill-opacity="0.2"/>
<circle cx="32.1238" cy="249.076" r="8.42697" transform="rotate(-45 32.1238 249.076)" fill="#03254E" fill-opacity="0.2"/>
<circle cx="49.4042" cy="231.796" r="8.42697" transform="rotate(-45 49.4042 231.796)" fill="#03254E" fill-opacity="0.2"/>
<circle cx="66.6846" cy="214.515" r="8.42697" transform="rotate(-45 66.6846 214.515)" fill="#03254E" fill-opacity="0.2"/>
<circle cx="83.965" cy="197.235" r="8.42697" transform="rotate(-45 83.965 197.235)" fill="#03254E" fill-opacity="0.2"/>
<circle cx="101.245" cy="179.955" r="8.42697" transform="rotate(-45 101.245 179.955)" fill="#03254E" fill-opacity="0.2"/>
<circle cx="118.526" cy="162.674" r="8.42697" transform="rotate(-45 118.526 162.674)" fill="#03254E" fill-opacity="0.2"/>
<circle cx="135.806" cy="145.394" r="8.42697" transform="rotate(-45 135.806 145.394)" fill="#03254E" fill-opacity="0.2"/>
<circle cx="-0.649364" cy="319.986" r="8.42697" transform="rotate(-45 -0.649364 319.986)" fill="#03254E" fill-opacity="0.2"/>
<circle cx="16.631" cy="302.705" r="8.42697" transform="rotate(-45 16.631 302.705)" fill="#03254E" fill-opacity="0.2"/>
<circle cx="33.9114" cy="285.425" r="8.42697" transform="rotate(-45 33.9114 285.425)" fill="#03254E" fill-opacity="0.2"/>
<circle cx="51.1918" cy="268.144" r="8.42697" transform="rotate(-45 51.1918 268.144)" fill="#03254E" fill-opacity="0.2"/>
<circle cx="68.4723" cy="250.864" r="8.42697" transform="rotate(-45 68.4723 250.864)" fill="#03254E" fill-opacity="0.2"/>
<circle cx="85.7527" cy="233.583" r="8.42697" transform="rotate(-45 85.7527 233.583)" fill="#03254E" fill-opacity="0.2"/>
<circle cx="103.033" cy="216.303" r="8.42697" transform="rotate(-45 103.033 216.303)" fill="#03254E" fill-opacity="0.2"/>
<circle cx="120.314" cy="199.023" r="8.42697" transform="rotate(-45 120.314 199.023)" fill="#03254E" fill-opacity="0.2"/>
<circle cx="137.594" cy="181.742" r="8.42697" transform="rotate(-45 137.594 181.742)" fill="#03254E" fill-opacity="0.2"/>
<circle cx="154.874" cy="164.462" r="8.42697" transform="rotate(-45 154.874 164.462)" fill="#03254E" fill-opacity="0.2"/>
<circle cx="1.13823" cy="356.334" r="8.42697" transform="rotate(-45 1.13823 356.334)" fill="#03254E" fill-opacity="0.2"/>
<circle cx="18.4186" cy="339.054" r="8.42697" transform="rotate(-45 18.4186 339.054)" fill="#03254E" fill-opacity="0.2"/>
<circle cx="35.699" cy="321.773" r="8.42697" transform="rotate(-45 35.699 321.773)" fill="#03254E" fill-opacity="0.2"/>
<circle cx="52.9795" cy="304.493" r="8.42697" transform="rotate(-45 52.9795 304.493)" fill="#03254E" fill-opacity="0.2"/>
<circle cx="70.2599" cy="287.212" r="8.42697" transform="rotate(-45 70.2599 287.212)" fill="#03254E" fill-opacity="0.2"/>
<circle cx="87.5403" cy="269.932" r="8.42697" transform="rotate(-45 87.5403 269.932)" fill="#03254E" fill-opacity="0.2"/>
<circle cx="104.821" cy="252.652" r="8.42697" transform="rotate(-45 104.821 252.652)" fill="#03254E" fill-opacity="0.2"/>
<circle cx="122.101" cy="235.371" r="8.42697" transform="rotate(-45 122.101 235.371)" fill="#03254E" fill-opacity="0.2"/>
<circle cx="139.382" cy="218.091" r="8.42697" transform="rotate(-45 139.382 218.091)" fill="#03254E" fill-opacity="0.2"/>
<circle cx="156.662" cy="200.81" r="8.42697" transform="rotate(-45 156.662 200.81)" fill="#03254E" fill-opacity="0.2"/>
<circle cx="173.942" cy="183.53" r="8.42697" transform="rotate(-45 173.942 183.53)" fill="#03254E" fill-opacity="0.2"/>
<circle cx="2.92583" cy="392.682" r="8.42697" transform="rotate(-45 2.92583 392.682)" fill="#03254E" fill-opacity="0.2"/>
<circle cx="20.2062" cy="375.402" r="8.42697" transform="rotate(-45 20.2062 375.402)" fill="#03254E" fill-opacity="0.2"/>
<circle cx="37.4867" cy="358.122" r="8.42697" transform="rotate(-45 37.4867 358.122)" fill="#03254E" fill-opacity="0.2"/>
<circle cx="54.7671" cy="340.841" r="8.42697" transform="rotate(-45 54.7671 340.841)" fill="#03254E" fill-opacity="0.2"/>
<circle cx="72.0475" cy="323.561" r="8.42697" transform="rotate(-45 72.0475 323.561)" fill="#03254E" fill-opacity="0.2"/>
<circle cx="89.3279" cy="306.28" r="8.42697" transform="rotate(-45 89.3279 306.28)" fill="#03254E" fill-opacity="0.2"/>
<circle cx="106.608" cy="289" r="8.42697" transform="rotate(-45 106.608 289)" fill="#03254E" fill-opacity="0.2"/>
<circle cx="123.889" cy="271.72" r="8.42697" transform="rotate(-45 123.889 271.72)" fill="#03254E" fill-opacity="0.2"/>
<circle cx="141.169" cy="254.439" r="8.42697" transform="rotate(-45 141.169 254.439)" fill="#03254E" fill-opacity="0.2"/>
<circle cx="158.45" cy="237.159" r="8.42697" transform="rotate(-45 158.45 237.159)" fill="#03254E" fill-opacity="0.2"/>
<circle cx="175.73" cy="219.878" r="8.42697" transform="rotate(-45 175.73 219.878)" fill="#03254E" fill-opacity="0.2"/>
<circle cx="193.01" cy="202.598" r="8.42697" transform="rotate(-45 193.01 202.598)" fill="#03254E" fill-opacity="0.2"/>
<circle cx="4.71349" cy="429.031" r="8.42697" transform="rotate(-45 4.71349 429.031)" fill="#03254E" fill-opacity="0.2"/>
<circle cx="21.9939" cy="411.751" r="8.42697" transform="rotate(-45 21.9939 411.751)" fill="#03254E" fill-opacity="0.2"/>
<circle cx="39.2743" cy="394.47" r="8.42697" transform="rotate(-45 39.2743 394.47)" fill="#03254E" fill-opacity="0.2"/>
<circle cx="56.5547" cy="377.19" r="8.42697" transform="rotate(-45 56.5547 377.19)" fill="#03254E" fill-opacity="0.2"/>
<circle cx="73.8351" cy="359.909" r="8.42697" transform="rotate(-45 73.8351 359.909)" fill="#03254E" fill-opacity="0.2"/>
<circle cx="91.1155" cy="342.629" r="8.42697" transform="rotate(-45 91.1155 342.629)" fill="#03254E" fill-opacity="0.2"/>
<circle cx="108.396" cy="325.348" r="8.42697" transform="rotate(-45 108.396 325.348)" fill="#03254E" fill-opacity="0.2"/>
<circle cx="125.676" cy="308.068" r="8.42697" transform="rotate(-45 125.676 308.068)" fill="#03254E" fill-opacity="0.2"/>
<circle cx="142.957" cy="290.788" r="8.42697" transform="rotate(-45 142.957 290.788)" fill="#03254E" fill-opacity="0.2"/>
<circle cx="160.237" cy="273.507" r="8.42697" transform="rotate(-45 160.237 273.507)" fill="#03254E" fill-opacity="0.2"/>
<circle cx="177.518" cy="256.227" r="8.42697" transform="rotate(-45 177.518 256.227)" fill="#03254E" fill-opacity="0.2"/>
<circle cx="194.798" cy="238.946" r="8.42697" transform="rotate(-45 194.798 238.946)" fill="#03254E" fill-opacity="0.2"/>
<circle cx="212.078" cy="221.666" r="8.42697" transform="rotate(-45 212.078 221.666)" fill="#03254E" fill-opacity="0.2"/>
</svg>
