<svg width="207" height="750" viewBox="0 0 207 750" fill="none" xmlns="http://www.w3.org/2000/svg">
<circle cx="8.42697" cy="741.573" r="8.42697" transform="rotate(-90 8.42697 741.573)" fill="#03254E" fill-opacity="0.2"/>
<circle cx="8.42697" cy="717.135" r="8.42697" transform="rotate(-90 8.42697 717.135)" fill="#03254E" fill-opacity="0.2"/>
<circle cx="8.42697" cy="692.697" r="8.42697" transform="rotate(-90 8.42697 692.697)" fill="#03254E" fill-opacity="0.2"/>
<circle cx="8.42697" cy="668.258" r="8.42697" transform="rotate(-90 8.42697 668.258)" fill="#03254E" fill-opacity="0.2"/>
<circle cx="8.42697" cy="643.82" r="8.42697" transform="rotate(-90 8.42697 643.82)" fill="#03254E" fill-opacity="0.2"/>
<circle cx="8.42697" cy="619.382" r="8.42697" transform="rotate(-90 8.42697 619.382)" fill="#03254E" fill-opacity="0.2"/>
<circle cx="8.42697" cy="594.944" r="8.42697" transform="rotate(-90 8.42697 594.944)" fill="#03254E" fill-opacity="0.2"/>
<circle cx="8.42697" cy="570.506" r="8.42697" transform="rotate(-90 8.42697 570.506)" fill="#03254E" fill-opacity="0.2"/>
<circle cx="8.42697" cy="546.067" r="8.42697" transform="rotate(-90 8.42697 546.067)" fill="#03254E" fill-opacity="0.2"/>
<circle cx="8.42697" cy="521.629" r="8.42697" transform="rotate(-90 8.42697 521.629)" fill="#03254E" fill-opacity="0.2"/>
<circle cx="8.42697" cy="497.191" r="8.42697" transform="rotate(-90 8.42697 497.191)" fill="#03254E" fill-opacity="0.2"/>
<circle cx="8.42697" cy="472.753" r="8.42697" transform="rotate(-90 8.42697 472.753)" fill="#03254E" fill-opacity="0.2"/>
<circle cx="8.42697" cy="448.315" r="8.42697" transform="rotate(-90 8.42697 448.315)" fill="#03254E" fill-opacity="0.2"/>
<circle cx="8.42697" cy="423.876" r="8.42697" transform="rotate(-90 8.42697 423.876)" fill="#03254E" fill-opacity="0.2"/>
<circle cx="8.42697" cy="399.438" r="8.42697" transform="rotate(-90 8.42697 399.438)" fill="#03254E" fill-opacity="0.2"/>
<circle cx="8.42697" cy="375" r="8.42697" transform="rotate(-90 8.42697 375)" fill="#03254E" fill-opacity="0.2"/>
<circle cx="8.42697" cy="350.562" r="8.42697" transform="rotate(-90 8.42697 350.562)" fill="#03254E" fill-opacity="0.2"/>
<circle cx="8.42697" cy="326.124" r="8.42697" transform="rotate(-90 8.42697 326.124)" fill="#03254E" fill-opacity="0.2"/>
<circle cx="8.42697" cy="301.685" r="8.42697" transform="rotate(-90 8.42697 301.685)" fill="#03254E" fill-opacity="0.2"/>
<circle cx="8.42697" cy="277.247" r="8.42697" transform="rotate(-90 8.42697 277.247)" fill="#03254E" fill-opacity="0.2"/>
<circle cx="8.42697" cy="252.809" r="8.42697" transform="rotate(-90 8.42697 252.809)" fill="#03254E" fill-opacity="0.2"/>
<circle cx="8.42697" cy="228.371" r="8.42697" transform="rotate(-90 8.42697 228.371)" fill="#03254E" fill-opacity="0.2"/>
<circle cx="8.42697" cy="203.933" r="8.42697" transform="rotate(-90 8.42697 203.933)" fill="#03254E" fill-opacity="0.2"/>
<circle cx="8.42697" cy="179.494" r="8.42697" transform="rotate(-90 8.42697 179.494)" fill="#03254E" fill-opacity="0.2"/>
<circle cx="8.42697" cy="155.056" r="8.42697" transform="rotate(-90 8.42697 155.056)" fill="#03254E" fill-opacity="0.2"/>
<circle cx="8.42697" cy="130.618" r="8.42697" transform="rotate(-90 8.42697 130.618)" fill="#03254E" fill-opacity="0.2"/>
<circle cx="8.42697" cy="106.18" r="8.42697" transform="rotate(-90 8.42697 106.18)" fill="#03254E" fill-opacity="0.2"/>
<circle cx="8.42697" cy="81.7416" r="8.42697" transform="rotate(-90 8.42697 81.7416)" fill="#03254E" fill-opacity="0.2"/>
<circle cx="8.42697" cy="57.3034" r="8.42697" transform="rotate(-90 8.42697 57.3034)" fill="#03254E" fill-opacity="0.2"/>
<circle cx="8.42697" cy="32.8651" r="8.42697" transform="rotate(-90 8.42697 32.8651)" fill="#03254E" fill-opacity="0.2"/>
<circle cx="8.42697" cy="8.42698" r="8.42697" transform="rotate(-90 8.42697 8.42698)" fill="#03254E" fill-opacity="0.2"/>
<circle cx="35.3933" cy="741.573" r="8.42697" transform="rotate(-90 35.3933 741.573)" fill="#03254E" fill-opacity="0.2"/>
<circle cx="35.3933" cy="717.135" r="8.42697" transform="rotate(-90 35.3933 717.135)" fill="#03254E" fill-opacity="0.2"/>
<circle cx="35.3933" cy="692.697" r="8.42697" transform="rotate(-90 35.3933 692.697)" fill="#03254E" fill-opacity="0.2"/>
<circle cx="35.3933" cy="668.258" r="8.42697" transform="rotate(-90 35.3933 668.258)" fill="#03254E" fill-opacity="0.2"/>
<circle cx="35.3933" cy="643.82" r="8.42697" transform="rotate(-90 35.3933 643.82)" fill="#03254E" fill-opacity="0.2"/>
<circle cx="35.3933" cy="619.382" r="8.42697" transform="rotate(-90 35.3933 619.382)" fill="#03254E" fill-opacity="0.2"/>
<circle cx="35.3933" cy="594.944" r="8.42697" transform="rotate(-90 35.3933 594.944)" fill="#03254E" fill-opacity="0.2"/>
<circle cx="35.3933" cy="570.506" r="8.42697" transform="rotate(-90 35.3933 570.506)" fill="#03254E" fill-opacity="0.2"/>
<circle cx="35.3933" cy="546.067" r="8.42697" transform="rotate(-90 35.3933 546.067)" fill="#03254E" fill-opacity="0.2"/>
<circle cx="35.3933" cy="521.629" r="8.42697" transform="rotate(-90 35.3933 521.629)" fill="#03254E" fill-opacity="0.2"/>
<circle cx="35.3933" cy="497.191" r="8.42697" transform="rotate(-90 35.3933 497.191)" fill="#03254E" fill-opacity="0.2"/>
<circle cx="35.3933" cy="472.753" r="8.42697" transform="rotate(-90 35.3933 472.753)" fill="#03254E" fill-opacity="0.2"/>
<circle cx="35.3933" cy="448.315" r="8.42697" transform="rotate(-90 35.3933 448.315)" fill="#03254E" fill-opacity="0.2"/>
<circle cx="35.3933" cy="423.876" r="8.42697" transform="rotate(-90 35.3933 423.876)" fill="#03254E" fill-opacity="0.2"/>
<circle cx="35.3933" cy="399.438" r="8.42697" transform="rotate(-90 35.3933 399.438)" fill="#03254E" fill-opacity="0.2"/>
<circle cx="35.3933" cy="375" r="8.42697" transform="rotate(-90 35.3933 375)" fill="#03254E" fill-opacity="0.2"/>
<circle cx="35.3933" cy="350.562" r="8.42697" transform="rotate(-90 35.3933 350.562)" fill="#03254E" fill-opacity="0.2"/>
<circle cx="35.3933" cy="326.124" r="8.42697" transform="rotate(-90 35.3933 326.124)" fill="#03254E" fill-opacity="0.2"/>
<circle cx="35.3933" cy="301.685" r="8.42697" transform="rotate(-90 35.3933 301.685)" fill="#03254E" fill-opacity="0.2"/>
<circle cx="35.3933" cy="277.247" r="8.42697" transform="rotate(-90 35.3933 277.247)" fill="#03254E" fill-opacity="0.2"/>
<circle cx="35.3933" cy="252.809" r="8.42697" transform="rotate(-90 35.3933 252.809)" fill="#03254E" fill-opacity="0.2"/>
<circle cx="35.3933" cy="228.371" r="8.42697" transform="rotate(-90 35.3933 228.371)" fill="#03254E" fill-opacity="0.2"/>
<circle cx="35.3933" cy="203.933" r="8.42697" transform="rotate(-90 35.3933 203.933)" fill="#03254E" fill-opacity="0.2"/>
<circle cx="35.3933" cy="179.494" r="8.42697" transform="rotate(-90 35.3933 179.494)" fill="#03254E" fill-opacity="0.2"/>
<circle cx="35.3933" cy="155.056" r="8.42697" transform="rotate(-90 35.3933 155.056)" fill="#03254E" fill-opacity="0.2"/>
<circle cx="35.3933" cy="130.618" r="8.42697" transform="rotate(-90 35.3933 130.618)" fill="#03254E" fill-opacity="0.2"/>
<circle cx="35.3933" cy="106.18" r="8.42697" transform="rotate(-90 35.3933 106.18)" fill="#03254E" fill-opacity="0.2"/>
<circle cx="35.3933" cy="81.7416" r="8.42697" transform="rotate(-90 35.3933 81.7416)" fill="#03254E" fill-opacity="0.2"/>
<circle cx="35.3933" cy="57.3034" r="8.42697" transform="rotate(-90 35.3933 57.3034)" fill="#03254E" fill-opacity="0.2"/>
<circle cx="35.3933" cy="32.8651" r="8.42697" transform="rotate(-90 35.3933 32.8651)" fill="#03254E" fill-opacity="0.2"/>
<circle cx="35.3933" cy="8.42698" r="8.42697" transform="rotate(-90 35.3933 8.42698)" fill="#03254E" fill-opacity="0.2"/>
<circle cx="62.3596" cy="741.573" r="8.42697" transform="rotate(-90 62.3596 741.573)" fill="#03254E" fill-opacity="0.2"/>
<circle cx="62.3596" cy="717.135" r="8.42697" transform="rotate(-90 62.3596 717.135)" fill="#03254E" fill-opacity="0.2"/>
<circle cx="62.3596" cy="692.697" r="8.42697" transform="rotate(-90 62.3596 692.697)" fill="#03254E" fill-opacity="0.2"/>
<circle cx="62.3596" cy="668.258" r="8.42697" transform="rotate(-90 62.3596 668.258)" fill="#03254E" fill-opacity="0.2"/>
<circle cx="62.3596" cy="643.82" r="8.42697" transform="rotate(-90 62.3596 643.82)" fill="#03254E" fill-opacity="0.2"/>
<circle cx="62.3596" cy="619.382" r="8.42697" transform="rotate(-90 62.3596 619.382)" fill="#03254E" fill-opacity="0.2"/>
<circle cx="62.3596" cy="594.944" r="8.42697" transform="rotate(-90 62.3596 594.944)" fill="#03254E" fill-opacity="0.2"/>
<circle cx="62.3596" cy="570.506" r="8.42697" transform="rotate(-90 62.3596 570.506)" fill="#03254E" fill-opacity="0.2"/>
<circle cx="62.3596" cy="546.067" r="8.42697" transform="rotate(-90 62.3596 546.067)" fill="#03254E" fill-opacity="0.2"/>
<circle cx="62.3596" cy="521.629" r="8.42697" transform="rotate(-90 62.3596 521.629)" fill="#03254E" fill-opacity="0.2"/>
<circle cx="62.3596" cy="497.191" r="8.42697" transform="rotate(-90 62.3596 497.191)" fill="#03254E" fill-opacity="0.2"/>
<circle cx="62.3596" cy="472.753" r="8.42697" transform="rotate(-90 62.3596 472.753)" fill="#03254E" fill-opacity="0.2"/>
<circle cx="62.3596" cy="448.315" r="8.42697" transform="rotate(-90 62.3596 448.315)" fill="#03254E" fill-opacity="0.2"/>
<circle cx="62.3596" cy="423.876" r="8.42697" transform="rotate(-90 62.3596 423.876)" fill="#03254E" fill-opacity="0.2"/>
<circle cx="62.3596" cy="399.438" r="8.42697" transform="rotate(-90 62.3596 399.438)" fill="#03254E" fill-opacity="0.2"/>
<circle cx="62.3596" cy="375" r="8.42697" transform="rotate(-90 62.3596 375)" fill="#03254E" fill-opacity="0.2"/>
<circle cx="62.3596" cy="350.562" r="8.42697" transform="rotate(-90 62.3596 350.562)" fill="#03254E" fill-opacity="0.2"/>
<circle cx="62.3596" cy="326.124" r="8.42697" transform="rotate(-90 62.3596 326.124)" fill="#03254E" fill-opacity="0.2"/>
<circle cx="62.3596" cy="301.685" r="8.42697" transform="rotate(-90 62.3596 301.685)" fill="#03254E" fill-opacity="0.2"/>
<circle cx="62.3596" cy="277.247" r="8.42697" transform="rotate(-90 62.3596 277.247)" fill="#03254E" fill-opacity="0.2"/>
<circle cx="62.3596" cy="252.809" r="8.42697" transform="rotate(-90 62.3596 252.809)" fill="#03254E" fill-opacity="0.2"/>
<circle cx="62.3596" cy="228.371" r="8.42697" transform="rotate(-90 62.3596 228.371)" fill="#03254E" fill-opacity="0.2"/>
<circle cx="62.3596" cy="203.933" r="8.42697" transform="rotate(-90 62.3596 203.933)" fill="#03254E" fill-opacity="0.2"/>
<circle cx="62.3596" cy="179.494" r="8.42697" transform="rotate(-90 62.3596 179.494)" fill="#03254E" fill-opacity="0.2"/>
<circle cx="62.3596" cy="155.056" r="8.42697" transform="rotate(-90 62.3596 155.056)" fill="#03254E" fill-opacity="0.2"/>
<circle cx="62.3596" cy="130.618" r="8.42697" transform="rotate(-90 62.3596 130.618)" fill="#03254E" fill-opacity="0.2"/>
<circle cx="62.3596" cy="106.18" r="8.42697" transform="rotate(-90 62.3596 106.18)" fill="#03254E" fill-opacity="0.2"/>
<circle cx="62.3596" cy="81.7416" r="8.42697" transform="rotate(-90 62.3596 81.7416)" fill="#03254E" fill-opacity="0.2"/>
<circle cx="62.3596" cy="57.3034" r="8.42697" transform="rotate(-90 62.3596 57.3034)" fill="#03254E" fill-opacity="0.2"/>
<circle cx="62.3596" cy="32.8651" r="8.42697" transform="rotate(-90 62.3596 32.8651)" fill="#03254E" fill-opacity="0.2"/>
<circle cx="62.3596" cy="8.42698" r="8.42697" transform="rotate(-90 62.3596 8.42698)" fill="#03254E" fill-opacity="0.2"/>
<circle cx="89.3259" cy="741.573" r="8.42697" transform="rotate(-90 89.3259 741.573)" fill="#03254E" fill-opacity="0.2"/>
<circle cx="89.3259" cy="717.135" r="8.42697" transform="rotate(-90 89.3259 717.135)" fill="#03254E" fill-opacity="0.2"/>
<circle cx="89.3259" cy="692.697" r="8.42697" transform="rotate(-90 89.3259 692.697)" fill="#03254E" fill-opacity="0.2"/>
<circle cx="89.3259" cy="668.258" r="8.42697" transform="rotate(-90 89.3259 668.258)" fill="#03254E" fill-opacity="0.2"/>
<circle cx="89.3259" cy="643.82" r="8.42697" transform="rotate(-90 89.3259 643.82)" fill="#03254E" fill-opacity="0.2"/>
<circle cx="89.3259" cy="619.382" r="8.42697" transform="rotate(-90 89.3259 619.382)" fill="#03254E" fill-opacity="0.2"/>
<circle cx="89.3259" cy="594.944" r="8.42697" transform="rotate(-90 89.3259 594.944)" fill="#03254E" fill-opacity="0.2"/>
<circle cx="89.3259" cy="570.506" r="8.42697" transform="rotate(-90 89.3259 570.506)" fill="#03254E" fill-opacity="0.2"/>
<circle cx="89.3259" cy="546.067" r="8.42697" transform="rotate(-90 89.3259 546.067)" fill="#03254E" fill-opacity="0.2"/>
<circle cx="89.3259" cy="521.629" r="8.42697" transform="rotate(-90 89.3259 521.629)" fill="#03254E" fill-opacity="0.2"/>
<circle cx="89.3259" cy="497.191" r="8.42697" transform="rotate(-90 89.3259 497.191)" fill="#03254E" fill-opacity="0.2"/>
<circle cx="89.3259" cy="472.753" r="8.42697" transform="rotate(-90 89.3259 472.753)" fill="#03254E" fill-opacity="0.2"/>
<circle cx="89.3259" cy="448.315" r="8.42697" transform="rotate(-90 89.3259 448.315)" fill="#03254E" fill-opacity="0.2"/>
<circle cx="89.3259" cy="423.876" r="8.42697" transform="rotate(-90 89.3259 423.876)" fill="#03254E" fill-opacity="0.2"/>
<circle cx="89.3259" cy="399.438" r="8.42697" transform="rotate(-90 89.3259 399.438)" fill="#03254E" fill-opacity="0.2"/>
<circle cx="89.3259" cy="375" r="8.42697" transform="rotate(-90 89.3259 375)" fill="#03254E" fill-opacity="0.2"/>
<circle cx="89.3259" cy="350.562" r="8.42697" transform="rotate(-90 89.3259 350.562)" fill="#03254E" fill-opacity="0.2"/>
<circle cx="89.3259" cy="326.124" r="8.42697" transform="rotate(-90 89.3259 326.124)" fill="#03254E" fill-opacity="0.2"/>
<circle cx="89.3259" cy="301.685" r="8.42697" transform="rotate(-90 89.3259 301.685)" fill="#03254E" fill-opacity="0.2"/>
<circle cx="89.3259" cy="277.247" r="8.42697" transform="rotate(-90 89.3259 277.247)" fill="#03254E" fill-opacity="0.2"/>
<circle cx="89.3259" cy="252.809" r="8.42697" transform="rotate(-90 89.3259 252.809)" fill="#03254E" fill-opacity="0.2"/>
<circle cx="89.3259" cy="228.371" r="8.42697" transform="rotate(-90 89.3259 228.371)" fill="#03254E" fill-opacity="0.2"/>
<circle cx="89.3259" cy="203.933" r="8.42697" transform="rotate(-90 89.3259 203.933)" fill="#03254E" fill-opacity="0.2"/>
<circle cx="89.3259" cy="179.494" r="8.42697" transform="rotate(-90 89.3259 179.494)" fill="#03254E" fill-opacity="0.2"/>
<circle cx="89.3259" cy="155.056" r="8.42697" transform="rotate(-90 89.3259 155.056)" fill="#03254E" fill-opacity="0.2"/>
<circle cx="89.3259" cy="130.618" r="8.42697" transform="rotate(-90 89.3259 130.618)" fill="#03254E" fill-opacity="0.2"/>
<circle cx="89.3259" cy="106.18" r="8.42697" transform="rotate(-90 89.3259 106.18)" fill="#03254E" fill-opacity="0.2"/>
<circle cx="89.3259" cy="81.7416" r="8.42697" transform="rotate(-90 89.3259 81.7416)" fill="#03254E" fill-opacity="0.2"/>
<circle cx="89.3259" cy="57.3034" r="8.42697" transform="rotate(-90 89.3259 57.3034)" fill="#03254E" fill-opacity="0.2"/>
<circle cx="89.3259" cy="32.8651" r="8.42697" transform="rotate(-90 89.3259 32.8651)" fill="#03254E" fill-opacity="0.2"/>
<circle cx="89.3259" cy="8.42698" r="8.42697" transform="rotate(-90 89.3259 8.42698)" fill="#03254E" fill-opacity="0.2"/>
<circle cx="116.292" cy="741.573" r="8.42697" transform="rotate(-90 116.292 741.573)" fill="#03254E" fill-opacity="0.2"/>
<circle cx="116.292" cy="717.135" r="8.42697" transform="rotate(-90 116.292 717.135)" fill="#03254E" fill-opacity="0.2"/>
<circle cx="116.292" cy="692.697" r="8.42697" transform="rotate(-90 116.292 692.697)" fill="#03254E" fill-opacity="0.2"/>
<circle cx="116.292" cy="668.258" r="8.42697" transform="rotate(-90 116.292 668.258)" fill="#03254E" fill-opacity="0.2"/>
<circle cx="116.292" cy="643.82" r="8.42697" transform="rotate(-90 116.292 643.82)" fill="#03254E" fill-opacity="0.2"/>
<circle cx="116.292" cy="619.382" r="8.42697" transform="rotate(-90 116.292 619.382)" fill="#03254E" fill-opacity="0.2"/>
<circle cx="116.292" cy="594.944" r="8.42697" transform="rotate(-90 116.292 594.944)" fill="#03254E" fill-opacity="0.2"/>
<circle cx="116.292" cy="570.506" r="8.42697" transform="rotate(-90 116.292 570.506)" fill="#03254E" fill-opacity="0.2"/>
<circle cx="116.292" cy="546.067" r="8.42697" transform="rotate(-90 116.292 546.067)" fill="#03254E" fill-opacity="0.2"/>
<circle cx="116.292" cy="521.629" r="8.42697" transform="rotate(-90 116.292 521.629)" fill="#03254E" fill-opacity="0.2"/>
<circle cx="116.292" cy="497.191" r="8.42697" transform="rotate(-90 116.292 497.191)" fill="#03254E" fill-opacity="0.2"/>
<circle cx="116.292" cy="472.753" r="8.42697" transform="rotate(-90 116.292 472.753)" fill="#03254E" fill-opacity="0.2"/>
<circle cx="116.292" cy="448.315" r="8.42697" transform="rotate(-90 116.292 448.315)" fill="#03254E" fill-opacity="0.2"/>
<circle cx="116.292" cy="423.876" r="8.42697" transform="rotate(-90 116.292 423.876)" fill="#03254E" fill-opacity="0.2"/>
<circle cx="116.292" cy="399.438" r="8.42697" transform="rotate(-90 116.292 399.438)" fill="#03254E" fill-opacity="0.2"/>
<circle cx="116.292" cy="375" r="8.42697" transform="rotate(-90 116.292 375)" fill="#03254E" fill-opacity="0.2"/>
<circle cx="116.292" cy="350.562" r="8.42697" transform="rotate(-90 116.292 350.562)" fill="#03254E" fill-opacity="0.2"/>
<circle cx="116.292" cy="326.124" r="8.42697" transform="rotate(-90 116.292 326.124)" fill="#03254E" fill-opacity="0.2"/>
<circle cx="116.292" cy="301.685" r="8.42697" transform="rotate(-90 116.292 301.685)" fill="#03254E" fill-opacity="0.2"/>
<circle cx="116.292" cy="277.247" r="8.42697" transform="rotate(-90 116.292 277.247)" fill="#03254E" fill-opacity="0.2"/>
<circle cx="116.292" cy="252.809" r="8.42697" transform="rotate(-90 116.292 252.809)" fill="#03254E" fill-opacity="0.2"/>
<circle cx="116.292" cy="228.371" r="8.42697" transform="rotate(-90 116.292 228.371)" fill="#03254E" fill-opacity="0.2"/>
<circle cx="116.292" cy="203.933" r="8.42697" transform="rotate(-90 116.292 203.933)" fill="#03254E" fill-opacity="0.2"/>
<circle cx="116.292" cy="179.494" r="8.42697" transform="rotate(-90 116.292 179.494)" fill="#03254E" fill-opacity="0.2"/>
<circle cx="116.292" cy="155.056" r="8.42697" transform="rotate(-90 116.292 155.056)" fill="#03254E" fill-opacity="0.2"/>
<circle cx="116.292" cy="130.618" r="8.42697" transform="rotate(-90 116.292 130.618)" fill="#03254E" fill-opacity="0.2"/>
<circle cx="116.292" cy="106.18" r="8.42697" transform="rotate(-90 116.292 106.18)" fill="#03254E" fill-opacity="0.2"/>
<circle cx="116.292" cy="81.7416" r="8.42697" transform="rotate(-90 116.292 81.7416)" fill="#03254E" fill-opacity="0.2"/>
<circle cx="116.292" cy="57.3034" r="8.42697" transform="rotate(-90 116.292 57.3034)" fill="#03254E" fill-opacity="0.2"/>
<circle cx="116.292" cy="32.8651" r="8.42697" transform="rotate(-90 116.292 32.8651)" fill="#03254E" fill-opacity="0.2"/>
<circle cx="116.292" cy="8.42698" r="8.42697" transform="rotate(-90 116.292 8.42698)" fill="#03254E" fill-opacity="0.2"/>
<circle cx="143.259" cy="741.573" r="8.42697" transform="rotate(-90 143.259 741.573)" fill="#03254E" fill-opacity="0.2"/>
<circle cx="143.259" cy="717.135" r="8.42697" transform="rotate(-90 143.259 717.135)" fill="#03254E" fill-opacity="0.2"/>
<circle cx="143.259" cy="692.697" r="8.42697" transform="rotate(-90 143.259 692.697)" fill="#03254E" fill-opacity="0.2"/>
<circle cx="143.259" cy="668.258" r="8.42697" transform="rotate(-90 143.259 668.258)" fill="#03254E" fill-opacity="0.2"/>
<circle cx="143.259" cy="643.82" r="8.42697" transform="rotate(-90 143.259 643.82)" fill="#03254E" fill-opacity="0.2"/>
<circle cx="143.259" cy="619.382" r="8.42697" transform="rotate(-90 143.259 619.382)" fill="#03254E" fill-opacity="0.2"/>
<circle cx="143.259" cy="594.944" r="8.42697" transform="rotate(-90 143.259 594.944)" fill="#03254E" fill-opacity="0.2"/>
<circle cx="143.259" cy="570.506" r="8.42697" transform="rotate(-90 143.259 570.506)" fill="#03254E" fill-opacity="0.2"/>
<circle cx="143.259" cy="546.067" r="8.42697" transform="rotate(-90 143.259 546.067)" fill="#03254E" fill-opacity="0.2"/>
<circle cx="143.259" cy="521.629" r="8.42697" transform="rotate(-90 143.259 521.629)" fill="#03254E" fill-opacity="0.2"/>
<circle cx="143.259" cy="497.191" r="8.42697" transform="rotate(-90 143.259 497.191)" fill="#03254E" fill-opacity="0.2"/>
<circle cx="143.259" cy="472.753" r="8.42697" transform="rotate(-90 143.259 472.753)" fill="#03254E" fill-opacity="0.2"/>
<circle cx="143.259" cy="448.315" r="8.42697" transform="rotate(-90 143.259 448.315)" fill="#03254E" fill-opacity="0.2"/>
<circle cx="143.259" cy="423.876" r="8.42697" transform="rotate(-90 143.259 423.876)" fill="#03254E" fill-opacity="0.2"/>
<circle cx="143.259" cy="399.438" r="8.42697" transform="rotate(-90 143.259 399.438)" fill="#03254E" fill-opacity="0.2"/>
<circle cx="143.259" cy="375" r="8.42697" transform="rotate(-90 143.259 375)" fill="#03254E" fill-opacity="0.2"/>
<circle cx="143.259" cy="350.562" r="8.42697" transform="rotate(-90 143.259 350.562)" fill="#03254E" fill-opacity="0.2"/>
<circle cx="143.259" cy="326.124" r="8.42697" transform="rotate(-90 143.259 326.124)" fill="#03254E" fill-opacity="0.2"/>
<circle cx="143.259" cy="301.685" r="8.42697" transform="rotate(-90 143.259 301.685)" fill="#03254E" fill-opacity="0.2"/>
<circle cx="143.259" cy="277.247" r="8.42697" transform="rotate(-90 143.259 277.247)" fill="#03254E" fill-opacity="0.2"/>
<circle cx="143.259" cy="252.809" r="8.42697" transform="rotate(-90 143.259 252.809)" fill="#03254E" fill-opacity="0.2"/>
<circle cx="143.259" cy="228.371" r="8.42697" transform="rotate(-90 143.259 228.371)" fill="#03254E" fill-opacity="0.2"/>
<circle cx="143.259" cy="203.933" r="8.42697" transform="rotate(-90 143.259 203.933)" fill="#03254E" fill-opacity="0.2"/>
<circle cx="143.259" cy="179.494" r="8.42697" transform="rotate(-90 143.259 179.494)" fill="#03254E" fill-opacity="0.2"/>
<circle cx="143.259" cy="155.056" r="8.42697" transform="rotate(-90 143.259 155.056)" fill="#03254E" fill-opacity="0.2"/>
<circle cx="143.259" cy="130.618" r="8.42697" transform="rotate(-90 143.259 130.618)" fill="#03254E" fill-opacity="0.2"/>
<circle cx="143.259" cy="106.18" r="8.42697" transform="rotate(-90 143.259 106.18)" fill="#03254E" fill-opacity="0.2"/>
<circle cx="143.259" cy="81.7416" r="8.42697" transform="rotate(-90 143.259 81.7416)" fill="#03254E" fill-opacity="0.2"/>
<circle cx="143.259" cy="57.3034" r="8.42697" transform="rotate(-90 143.259 57.3034)" fill="#03254E" fill-opacity="0.2"/>
<circle cx="143.259" cy="32.8651" r="8.42697" transform="rotate(-90 143.259 32.8651)" fill="#03254E" fill-opacity="0.2"/>
<circle cx="143.259" cy="8.42698" r="8.42697" transform="rotate(-90 143.259 8.42698)" fill="#03254E" fill-opacity="0.2"/>
<circle cx="170.225" cy="741.573" r="8.42697" transform="rotate(-90 170.225 741.573)" fill="#03254E" fill-opacity="0.2"/>
<circle cx="170.225" cy="717.135" r="8.42697" transform="rotate(-90 170.225 717.135)" fill="#03254E" fill-opacity="0.2"/>
<circle cx="170.225" cy="692.697" r="8.42697" transform="rotate(-90 170.225 692.697)" fill="#03254E" fill-opacity="0.2"/>
<circle cx="170.225" cy="668.258" r="8.42697" transform="rotate(-90 170.225 668.258)" fill="#03254E" fill-opacity="0.2"/>
<circle cx="170.225" cy="643.82" r="8.42697" transform="rotate(-90 170.225 643.82)" fill="#03254E" fill-opacity="0.2"/>
<circle cx="170.225" cy="619.382" r="8.42697" transform="rotate(-90 170.225 619.382)" fill="#03254E" fill-opacity="0.2"/>
<circle cx="170.225" cy="594.944" r="8.42697" transform="rotate(-90 170.225 594.944)" fill="#03254E" fill-opacity="0.2"/>
<circle cx="170.225" cy="570.506" r="8.42697" transform="rotate(-90 170.225 570.506)" fill="#03254E" fill-opacity="0.2"/>
<circle cx="170.225" cy="546.067" r="8.42697" transform="rotate(-90 170.225 546.067)" fill="#03254E" fill-opacity="0.2"/>
<circle cx="170.225" cy="521.629" r="8.42697" transform="rotate(-90 170.225 521.629)" fill="#03254E" fill-opacity="0.2"/>
<circle cx="170.225" cy="497.191" r="8.42697" transform="rotate(-90 170.225 497.191)" fill="#03254E" fill-opacity="0.2"/>
<circle cx="170.225" cy="472.753" r="8.42697" transform="rotate(-90 170.225 472.753)" fill="#03254E" fill-opacity="0.2"/>
<circle cx="170.225" cy="448.315" r="8.42697" transform="rotate(-90 170.225 448.315)" fill="#03254E" fill-opacity="0.2"/>
<circle cx="170.225" cy="423.876" r="8.42697" transform="rotate(-90 170.225 423.876)" fill="#03254E" fill-opacity="0.2"/>
<circle cx="170.225" cy="399.438" r="8.42697" transform="rotate(-90 170.225 399.438)" fill="#03254E" fill-opacity="0.2"/>
<circle cx="170.225" cy="375" r="8.42697" transform="rotate(-90 170.225 375)" fill="#03254E" fill-opacity="0.2"/>
<circle cx="170.225" cy="350.562" r="8.42697" transform="rotate(-90 170.225 350.562)" fill="#03254E" fill-opacity="0.2"/>
<circle cx="170.225" cy="326.124" r="8.42697" transform="rotate(-90 170.225 326.124)" fill="#03254E" fill-opacity="0.2"/>
<circle cx="170.225" cy="301.685" r="8.42697" transform="rotate(-90 170.225 301.685)" fill="#03254E" fill-opacity="0.2"/>
<circle cx="170.225" cy="277.247" r="8.42697" transform="rotate(-90 170.225 277.247)" fill="#03254E" fill-opacity="0.2"/>
<circle cx="170.225" cy="252.809" r="8.42697" transform="rotate(-90 170.225 252.809)" fill="#03254E" fill-opacity="0.2"/>
<circle cx="170.225" cy="228.371" r="8.42697" transform="rotate(-90 170.225 228.371)" fill="#03254E" fill-opacity="0.2"/>
<circle cx="170.225" cy="203.933" r="8.42697" transform="rotate(-90 170.225 203.933)" fill="#03254E" fill-opacity="0.2"/>
<circle cx="170.225" cy="179.494" r="8.42697" transform="rotate(-90 170.225 179.494)" fill="#03254E" fill-opacity="0.2"/>
<circle cx="170.225" cy="155.056" r="8.42697" transform="rotate(-90 170.225 155.056)" fill="#03254E" fill-opacity="0.2"/>
<circle cx="170.225" cy="130.618" r="8.42697" transform="rotate(-90 170.225 130.618)" fill="#03254E" fill-opacity="0.2"/>
<circle cx="170.225" cy="106.18" r="8.42697" transform="rotate(-90 170.225 106.18)" fill="#03254E" fill-opacity="0.2"/>
<circle cx="170.225" cy="81.7416" r="8.42697" transform="rotate(-90 170.225 81.7416)" fill="#03254E" fill-opacity="0.2"/>
<circle cx="170.225" cy="57.3034" r="8.42697" transform="rotate(-90 170.225 57.3034)" fill="#03254E" fill-opacity="0.2"/>
<circle cx="170.225" cy="32.8651" r="8.42697" transform="rotate(-90 170.225 32.8651)" fill="#03254E" fill-opacity="0.2"/>
<circle cx="170.225" cy="8.42698" r="8.42697" transform="rotate(-90 170.225 8.42698)" fill="#03254E" fill-opacity="0.2"/>
<circle cx="197.191" cy="741.573" r="8.42697" transform="rotate(-90 197.191 741.573)" fill="#03254E" fill-opacity="0.2"/>
<circle cx="197.191" cy="717.135" r="8.42697" transform="rotate(-90 197.191 717.135)" fill="#03254E" fill-opacity="0.2"/>
<circle cx="197.191" cy="692.697" r="8.42697" transform="rotate(-90 197.191 692.697)" fill="#03254E" fill-opacity="0.2"/>
<circle cx="197.191" cy="668.258" r="8.42697" transform="rotate(-90 197.191 668.258)" fill="#03254E" fill-opacity="0.2"/>
<circle cx="197.191" cy="643.82" r="8.42697" transform="rotate(-90 197.191 643.82)" fill="#03254E" fill-opacity="0.2"/>
<circle cx="197.191" cy="619.382" r="8.42697" transform="rotate(-90 197.191 619.382)" fill="#03254E" fill-opacity="0.2"/>
<circle cx="197.191" cy="594.944" r="8.42697" transform="rotate(-90 197.191 594.944)" fill="#03254E" fill-opacity="0.2"/>
<circle cx="197.191" cy="570.506" r="8.42697" transform="rotate(-90 197.191 570.506)" fill="#03254E" fill-opacity="0.2"/>
<circle cx="197.191" cy="546.067" r="8.42697" transform="rotate(-90 197.191 546.067)" fill="#03254E" fill-opacity="0.2"/>
<circle cx="197.191" cy="521.629" r="8.42697" transform="rotate(-90 197.191 521.629)" fill="#03254E" fill-opacity="0.2"/>
<circle cx="197.191" cy="497.191" r="8.42697" transform="rotate(-90 197.191 497.191)" fill="#03254E" fill-opacity="0.2"/>
<circle cx="197.191" cy="472.753" r="8.42697" transform="rotate(-90 197.191 472.753)" fill="#03254E" fill-opacity="0.2"/>
<circle cx="197.191" cy="448.315" r="8.42697" transform="rotate(-90 197.191 448.315)" fill="#03254E" fill-opacity="0.2"/>
<circle cx="197.191" cy="423.876" r="8.42697" transform="rotate(-90 197.191 423.876)" fill="#03254E" fill-opacity="0.2"/>
<circle cx="197.191" cy="399.438" r="8.42697" transform="rotate(-90 197.191 399.438)" fill="#03254E" fill-opacity="0.2"/>
<circle cx="197.191" cy="375" r="8.42697" transform="rotate(-90 197.191 375)" fill="#03254E" fill-opacity="0.2"/>
<circle cx="197.191" cy="350.562" r="8.42697" transform="rotate(-90 197.191 350.562)" fill="#03254E" fill-opacity="0.2"/>
<circle cx="197.191" cy="326.124" r="8.42697" transform="rotate(-90 197.191 326.124)" fill="#03254E" fill-opacity="0.2"/>
<circle cx="197.191" cy="301.685" r="8.42697" transform="rotate(-90 197.191 301.685)" fill="#03254E" fill-opacity="0.2"/>
<circle cx="197.191" cy="277.247" r="8.42697" transform="rotate(-90 197.191 277.247)" fill="#03254E" fill-opacity="0.2"/>
<circle cx="197.191" cy="252.809" r="8.42697" transform="rotate(-90 197.191 252.809)" fill="#03254E" fill-opacity="0.2"/>
<circle cx="197.191" cy="228.371" r="8.42697" transform="rotate(-90 197.191 228.371)" fill="#03254E" fill-opacity="0.2"/>
<circle cx="197.191" cy="203.933" r="8.42697" transform="rotate(-90 197.191 203.933)" fill="#03254E" fill-opacity="0.2"/>
<circle cx="197.191" cy="179.494" r="8.42697" transform="rotate(-90 197.191 179.494)" fill="#03254E" fill-opacity="0.2"/>
<circle cx="197.191" cy="155.056" r="8.42697" transform="rotate(-90 197.191 155.056)" fill="#03254E" fill-opacity="0.2"/>
<circle cx="197.191" cy="130.618" r="8.42697" transform="rotate(-90 197.191 130.618)" fill="#03254E" fill-opacity="0.2"/>
<circle cx="197.191" cy="106.18" r="8.42697" transform="rotate(-90 197.191 106.18)" fill="#03254E" fill-opacity="0.2"/>
<circle cx="197.191" cy="81.7416" r="8.42697" transform="rotate(-90 197.191 81.7416)" fill="#03254E" fill-opacity="0.2"/>
<circle cx="197.191" cy="57.3034" r="8.42697" transform="rotate(-90 197.191 57.3034)" fill="#03254E" fill-opacity="0.2"/>
<circle cx="197.191" cy="32.8651" r="8.42697" transform="rotate(-90 197.191 32.8651)" fill="#03254E" fill-opacity="0.2"/>
<circle cx="197.191" cy="8.42698" r="8.42697" transform="rotate(-90 197.191 8.42698)" fill="#03254E" fill-opacity="0.2"/>
</svg>
